<?xml version="1.0" encoding="UTF-8" standalone="no"?>
<svg
   xmlns:dc="http://purl.org/dc/elements/1.1/"
   xmlns:cc="http://creativecommons.org/ns#"
   xmlns:rdf="http://www.w3.org/1999/02/22-rdf-syntax-ns#"
   xmlns:svg="http://www.w3.org/2000/svg"
   xmlns="http://www.w3.org/2000/svg"
   xmlns:sodipodi="http://sodipodi.sourceforge.net/DTD/sodipodi-0.dtd"
   xmlns:inkscape="http://www.inkscape.org/namespaces/inkscape"
   width="16.328247"
   height="21.6138"
   viewBox="0 0 16.328247 21.6138"
   version="1.1"
   id="svg4"
   sodipodi:docname="Frame 48.svg"
   style="fill:none"
   inkscape:version="0.92.4 (5da689c313, 2019-01-14)">
  <metadata
     id="metadata10">
    <rdf:RDF>
      <cc:Work
         rdf:about="">
        <dc:format>image/svg+xml</dc:format>
        <dc:type
           rdf:resource="http://purl.org/dc/dcmitype/StillImage" />
        <dc:title></dc:title>
      </cc:Work>
    </rdf:RDF>
  </metadata>
  <defs
     id="defs8" />
  <sodipodi:namedview
     pagecolor="#ffffff"
     bordercolor="#666666"
     borderopacity="1"
     objecttolerance="10"
     gridtolerance="10"
     guidetolerance="10"
     inkscape:pageopacity="0"
     inkscape:pageshadow="2"
     inkscape:window-width="758"
     inkscape:window-height="480"
     id="namedview6"
     showgrid="false"
     fit-margin-top="0"
     fit-margin-left="0"
     fit-margin-right="0"
     fit-margin-bottom="0"
     inkscape:zoom="2.95"
     inkscape:cx="8"
     inkscape:cy="10.6138"
     inkscape:window-x="0"
     inkscape:window-y="0"
     inkscape:window-maximized="0"
     inkscape:current-layer="svg4" />
  <path
     d="M 16.2857,8.6887 C 16.6249,6.4177 14.8958,5.1969 12.5315,4.3825 L 13.2984,1.3062 11.4253,0.8395 10.6786,3.8347 C 10.1869,3.7121 9.6813,3.5963 9.1789,3.4817 L 9.9309,0.4667 8.0594,0 7.2919,3.0753 C 6.8844,2.9825 6.4844,2.8907 6.0961,2.7942 L 6.0983,2.7846 3.5158,2.1398 l -0.4981,2 c 0,0 1.3893,0.3184 1.36,0.3382 0.7584,0.1893 0.896,0.6912 0.8725,1.089 L 4.3766,9.0716 c 0.0523,0.0134 0.12,0.0326 0.1947,0.0625 L 4.374,9.085 3.1489,13.9944 c -0.0928,0.2304 -0.328,0.576 -0.8582,0.4448 0.0187,0.0272 -1.3611,-0.3397 -1.3611,-0.3397 L 0,16.2435 2.4374,16.851 c 0.2752,0.069 0.547,0.1399 0.8158,0.21 0.1741,0.0454 0.3469,0.0905 0.5186,0.1345 l -0.7749,3.1121 1.8704,0.4667 0.768,-3.0785 c 0.5104,0.1387 1.0064,0.2667 1.4918,0.3872 l -0.7648,3.0641 1.8725,0.4667 0.775,-3.1057 c 3.1931,0.6043 5.5948,0.3605 6.6044,-2.527 0.8144,-2.3254 -0.04,-3.6667 -1.7201,-4.5419 1.2235,-0.2832 2.1457,-1.0881 2.3916,-2.7505 z m -4.2791,5.9995 C 11.475,16.8224 8.1337,15.9394 6.6062,15.5357 6.4694,15.4995 6.3472,15.4672 6.2428,15.4413 l 1.0283,-4.1222 c 0.1275,0.0318 0.2834,0.0668 0.4599,0.1064 1.5803,0.3546 4.8182,1.0813 4.2756,3.2627 z M 8.0487,9.5126 c 1.2745,0.34 4.0526,1.0812 4.5366,-0.8576 C 13.0801,6.6715 10.3786,6.0737 9.0593,5.7817 8.911,5.7489 8.7801,5.7199 8.6732,5.6933 L 7.7409,9.432 c 0.0883,0.022 0.1918,0.0496 0.3078,0.0806 z"
     id="path2"
     inkscape:connector-curvature="0"
     style="clip-rule:evenodd;fill:#1f222e;fill-rule:evenodd" />
</svg>
