<svg width="205" height="100" viewBox="0 0 205 100" fill="none" xmlns="http://www.w3.org/2000/svg">
<path d="M0 89.9062H5.89591V76.4363H20.3636V89.9062H26.3048V58.7032H20.3636V71.6289H5.89591V58.7032H0V89.9062Z" fill="white"/>
<path d="M29.8603 78.5679C29.8603 85.5069 34.7131 90.4504 41.5614 90.4504C48.4098 90.4504 53.2172 85.5069 53.2172 78.5679C53.2172 71.5835 48.4098 66.6854 41.5614 66.6854C34.7131 66.6854 29.8603 71.5835 29.8603 78.5679ZM35.8016 78.5679C35.8016 74.3954 38.1599 71.5382 41.5614 71.5382C44.9176 71.5382 47.2759 74.3954 47.2759 78.5679C47.2759 82.7404 44.9176 85.5976 41.5614 85.5976C38.1599 85.5976 35.8016 82.7404 35.8016 78.5679Z" fill="white"/>
<path d="M55.9166 89.9062H61.7219V57.2973H55.9166V89.9062Z" fill="white"/>
<path d="M64.4061 78.3865C64.4061 85.4616 69.2135 90.4504 76.0618 90.4504C78.6016 90.4504 81.1867 89.8608 83.7719 88.6817V83.8289C81.4135 85.1895 79.1005 85.9605 77.0142 85.9605C73.2046 85.9605 70.4834 83.6021 70.1206 80.1553H85.4953C85.586 79.3843 85.586 78.6586 85.586 78.0237C85.586 71.3568 81.5496 66.6854 75.6083 66.6854C69.1228 66.6854 64.4061 71.5382 64.4061 78.3865ZM70.1206 76.391C70.3927 73.2616 72.5696 71.1753 75.3815 71.1753C77.9667 71.1753 79.8261 73.3069 80.0076 76.391H70.1206Z" fill="white"/>
<path d="M104.732 78.5679C104.732 82.6497 102.464 85.4616 99.199 85.4616C97.6117 85.4616 96.0243 84.7813 94.6637 83.4207V73.7151C96.0243 72.3545 97.6117 71.6742 99.199 71.6742C102.464 71.6742 104.732 74.4861 104.732 78.5679ZM88.8585 99.8385H94.6637V88.3188C96.4778 89.7248 98.4734 90.4504 100.424 90.4504C106.501 90.4504 110.673 85.5523 110.673 78.5679C110.673 71.5835 106.501 66.6854 100.424 66.6854C98.4734 66.6854 96.4778 67.411 94.6637 68.7716V67.2296H88.8585V99.8385Z" fill="white"/>
<path d="M134.063 67.2296H128.212V82.9672C126.716 84.5092 125.083 85.3709 123.359 85.3709C121.001 85.3709 119.368 83.6021 119.368 81.2437V67.2296H113.563V82.2869C113.563 87.0489 116.874 90.4504 121.636 90.4504C123.904 90.4504 126.171 89.5887 128.212 87.9107V89.9062H134.063V67.2296Z" fill="white"/>
<path d="M137.887 89.9062H143.692V74.1686C145.189 72.5813 146.867 71.7649 148.545 71.7649C150.903 71.7649 152.536 73.4884 152.536 75.8921V89.9062H158.387V74.8489C158.387 70.0415 155.031 66.6854 150.314 66.6854C148.001 66.6854 145.733 67.5471 143.692 69.1798V67.2296H137.887V89.9062Z" fill="white"/>
<path d="M161.231 78.5679C161.231 85.5069 166.039 90.4504 172.887 90.4504C175.155 90.4504 177.468 89.9062 179.735 88.8631V83.6475C177.785 84.9173 175.79 85.5976 173.93 85.5976C169.984 85.5976 167.172 82.695 167.172 78.5679C167.172 74.3954 169.984 71.5382 173.93 71.5382C175.79 71.5382 177.785 72.2185 179.735 73.4884V68.2727C177.468 67.2296 175.155 66.6854 172.887 66.6854C166.039 66.6854 161.231 71.5835 161.231 78.5679Z" fill="white"/>
<path d="M183.425 89.9062H189.23V74.1686C190.727 72.5813 192.405 71.7649 194.083 71.7649C196.441 71.7649 198.074 73.4884 198.074 75.8921V89.9062H203.924V74.8489C203.924 70.0415 200.568 66.6854 195.852 66.6854C193.539 66.6854 191.271 67.5471 189.23 69.1798V57.2973H183.425V89.9062Z" fill="white"/>
<path d="M22.3123 44.9399C34.4658 44.9399 44.3181 40.8427 44.3181 35.7885C44.3181 30.7344 34.4658 26.6372 22.3123 26.6372C10.1588 26.6372 0.306519 30.7344 0.306519 35.7885C0.306519 40.8427 10.1588 44.9399 22.3123 44.9399Z" fill="#515560"/>
<path fill-rule="evenodd" clip-rule="evenodd" d="M1.86517 39.1779C5.10412 35.8017 13.0382 33.416 22.3123 33.416C31.5864 33.416 39.5205 35.8017 42.7594 39.1779C43.7651 38.1297 44.3181 36.986 44.3181 35.7885C44.3181 30.7344 34.4658 26.6372 22.3123 26.6372C10.1588 26.6372 0.306519 30.7344 0.306519 35.7885C0.306519 36.986 0.859542 38.1297 1.86517 39.1779Z" fill="#F2F2F5"/>
<path d="M110.781 15.1031C110.781 14.5641 110.34 14.1254 109.798 14.1254L97.9932 14.1078L97.973 38.9265L109.774 38.9355C110.303 38.9355 110.754 38.4892 110.754 37.9581L110.781 15.1031Z" fill="#F2F2F5"/>
<path d="M53.5263 19.5871C51.864 27.0949 53.0628 34.848 56.5813 39.3395L56.5808 39.3395C63.6989 48.4128 77.2381 44.4975 89.1826 41.0432L89.1971 41.039C91.593 40.3461 93.8697 39.6877 96.0539 39.1416L96.0784 13.4235C95.3255 12.2024 94.6823 11.0003 94.0596 9.83667L94.0548 9.82759C92.4605 6.84739 91.0835 4.27336 88.5584 2.66157C83.7111 -0.428519 72.298 -1.37245 68.821 5.55041C73.4523 6.06087 78.3924 7.67625 82.1222 10.4679C82.544 10.784 82.6288 11.3806 82.3116 11.8009C82.2842 11.8374 82.2542 11.8712 82.2225 11.9028C81.8914 12.2324 81.3584 12.2781 80.9729 11.9896C74.5945 7.21464 64.3205 6.27761 60.4137 8.23118C60.3462 8.30026 55.58 10.3123 53.5263 19.5871Z" fill="#E44B44"/>
</svg>
