<?xml version="1.0" encoding="UTF-8" standalone="no"?>
<svg
   xmlns:dc="http://purl.org/dc/elements/1.1/"
   xmlns:cc="http://creativecommons.org/ns#"
   xmlns:rdf="http://www.w3.org/1999/02/22-rdf-syntax-ns#"
   xmlns:svg="http://www.w3.org/2000/svg"
   xmlns="http://www.w3.org/2000/svg"
   xmlns:sodipodi="http://sodipodi.sourceforge.net/DTD/sodipodi-0.dtd"
   xmlns:inkscape="http://www.inkscape.org/namespaces/inkscape"
   width="28.003201"
   height="28.003201"
   viewBox="0 0 28.0032 28.003201"
   version="1.1"
   id="svg4"
   sodipodi:docname="Frame 43.svg"
   style="fill:none"
   inkscape:version="0.92.4 (5da689c313, 2019-01-14)">
  <metadata
     id="metadata10">
    <rdf:RDF>
      <cc:Work
         rdf:about="">
        <dc:format>image/svg+xml</dc:format>
        <dc:type
           rdf:resource="http://purl.org/dc/dcmitype/StillImage" />
        <dc:title></dc:title>
      </cc:Work>
    </rdf:RDF>
  </metadata>
  <defs
     id="defs8" />
  <sodipodi:namedview
     pagecolor="#ffffff"
     bordercolor="#666666"
     borderopacity="1"
     objecttolerance="10"
     gridtolerance="10"
     guidetolerance="10"
     inkscape:pageopacity="0"
     inkscape:pageshadow="2"
     inkscape:window-width="758"
     inkscape:window-height="480"
     id="namedview6"
     showgrid="false"
     fit-margin-top="0"
     fit-margin-left="0"
     fit-margin-right="0"
     fit-margin-bottom="0"
     inkscape:zoom="3.0649351"
     inkscape:cx="10.999964"
     inkscape:cy="13.5032"
     inkscape:window-x="0"
     inkscape:window-y="0"
     inkscape:window-maximized="0"
     inkscape:current-layer="svg4" />
  <path
     d="m 20.915418,27.32947 c 0,0.2652 -0.1054,0.5196 -0.2929,0.7071 -0.1876,0.1875 -0.4419,0.2929 -0.7071,0.2929 H 9.9154178 c -0.2653,0 -0.5196,-0.1054 -0.7071,-0.2929 -0.1876,-0.1875 -0.2929,-0.4419 -0.2929,-0.7071 0,-0.2652 0.1053,-0.5196 0.2929,-0.7071 0.1875,-0.1876 0.4418,-0.2929 0.7071,-0.2929 H 19.915418 c 0.2652,0 0.5195,0.1053 0.7071,0.2929 0.1875,0.1875 0.2929,0.4419 0.2929,0.7071 z m 5,-16 c 0.0043,1.667 -0.3723,3.313 -1.1011,4.8124 -0.7287,1.4993 -1.7904,2.8123 -3.1039,3.8388 -0.2456,0.1883 -0.445,0.4302 -0.5827,0.7073 -0.1378,0.2771 -0.2104,0.582 -0.2123,0.8915 v 0.75 c 0,0.5304 -0.2108,1.0391 -0.5858,1.4142 -0.3751,0.3751 -0.8838,0.5858 -1.4142,0.5858 h -8 c -0.5305,0 -1.0392002,-0.2107 -1.4142002,-0.5858 -0.3751,-0.3751 -0.5858,-0.8838 -0.5858,-1.4142 v -0.75 c -2e-4,-0.3058 -0.0705,-0.6074 -0.2055,-0.8817 -0.135,-0.2744 -0.3312,-0.5141 -0.5733,-0.7008 -1.3102,-1.0204 -2.3712,-2.3256 -3.1025,-3.8166 -0.7313,-1.4911 -1.1139,-3.1289 -1.1187,-4.7897 -0.0325,-5.9574985 4.7825,-10.91869855 10.7350002,-11.06119855 1.4667,-0.0354 2.9256,0.2231 4.2909,0.75999995 1.3653,0.5370001 2.6094,1.3416001 3.6591,2.3666001 1.0497,1.025 1.8837,2.2496 2.453,3.6018 0.5693,1.3521 0.8624,2.8045 0.862,4.2715985 z m -2,0 c 3e-4,-1.200399 -0.2395,-2.3887985 -0.7053,-3.4950985 -0.4658,-1.1064 -1.1483,-2.1084 -2.0072,-2.947 -0.8589,-0.8387 -1.8769,-1.497 -2.9941,-1.9363 -1.1171,-0.4393 -2.3109,-0.6506 -3.5109,-0.6216 -4.8750002,0.115 -8.8088002,4.1737 -8.7825002,9.0486985 0.0045,1.3583 0.318,2.6977 0.9165,3.9169 0.5986,1.2192 1.4666,2.2864 2.5385,3.1206 0.4818,0.3746 0.8715002,0.8544 1.1393002,1.4028 0.2678,0.5484 0.4065,1.1507 0.4057,1.761 v 0.75 h 8 v -0.75 c 0.0014,-0.612 0.1425,-1.2156 0.4126,-1.7648 0.2702,-0.5491 0.6622,-1.0293 1.1461,-1.404 1.0751,-0.8402 1.9441,-1.9149 2.5405,-3.1422 0.5964,-1.2272 0.9045,-2.5745 0.9008,-3.939 z m -2.0138,-1.167499 c -0.2593,-1.4483995 -0.9561,-2.7825995 -1.9967,-3.8228995 -1.0405,-1.0403 -2.3748,-1.7369 -3.8233,-1.9959 -0.1295,-0.0218 -0.2621,-0.0179 -0.3901,0.0115 -0.128,0.0294 -0.2489,0.0837 -0.356,0.1599 -0.107,0.0761 -0.198,0.1726 -0.2677,0.2839 -0.0697,0.1113 -0.1169,0.2352 -0.1387,0.3647 -0.0218,0.1296 -0.0179,0.2621 0.0115,0.3901 0.0294,0.128 0.0837,0.249 0.1598,0.356 0.0762,0.107 0.1726,0.198 0.2839,0.2677 0.1113,0.0698 0.2353,0.1169 0.3648,0.1387 2.0713,0.3488 3.8288,2.1063 4.18,4.1812985 0.0396,0.2329 0.1603,0.4443 0.3409,0.5967 0.1805,0.1523 0.4091,0.2359 0.6454,0.2358 0.0565,-3e-4 0.1129,-0.0049 0.1687,-0.0138 0.2614,-0.0446 0.4944,-0.1912 0.6477,-0.4076 0.1533,-0.2163 0.2144,-0.4847 0.1698,-0.746099 z"
     id="path2"
     inkscape:connector-curvature="0"
     style="fill:#343330" />
</svg>
