<?xml version="1.0" encoding="UTF-8" standalone="no"?>
<svg
   xmlns:dc="http://purl.org/dc/elements/1.1/"
   xmlns:cc="http://creativecommons.org/ns#"
   xmlns:rdf="http://www.w3.org/1999/02/22-rdf-syntax-ns#"
   xmlns:svg="http://www.w3.org/2000/svg"
   xmlns="http://www.w3.org/2000/svg"
   xmlns:sodipodi="http://sodipodi.sourceforge.net/DTD/sodipodi-0.dtd"
   xmlns:inkscape="http://www.inkscape.org/namespaces/inkscape"
   width="29.98995"
   height="29.98995"
   viewBox="0 0 29.98995 29.98995"
   version="1.1"
   id="svg4"
   sodipodi:docname="Frame 44.svg"
   style="fill:none"
   inkscape:version="0.92.4 (5da689c313, 2019-01-14)">
  <metadata
     id="metadata10">
    <rdf:RDF>
      <cc:Work
         rdf:about="">
        <dc:format>image/svg+xml</dc:format>
        <dc:type
           rdf:resource="http://purl.org/dc/dcmitype/StillImage" />
        <dc:title></dc:title>
      </cc:Work>
    </rdf:RDF>
  </metadata>
  <defs
     id="defs8" />
  <sodipodi:namedview
     pagecolor="#ffffff"
     bordercolor="#666666"
     borderopacity="1"
     objecttolerance="10"
     gridtolerance="10"
     guidetolerance="10"
     inkscape:pageopacity="0"
     inkscape:pageshadow="2"
     inkscape:window-width="758"
     inkscape:window-height="480"
     id="namedview6"
     showgrid="false"
     fit-margin-top="0"
     fit-margin-left="0"
     fit-margin-right="0"
     fit-margin-bottom="0"
     inkscape:zoom="3.0649351"
     inkscape:cx="10.999981"
     inkscape:cy="15.489975"
     inkscape:window-x="0"
     inkscape:window-y="0"
     inkscape:window-maximized="0"
     inkscape:current-layer="svg4" />
  <path
     d="m 25.979681,13.766175 c -0.0379,-0.1602 -0.1148,-0.3087 -0.2238,-0.4321 -0.109,-0.1234 -0.2469,-0.218 -0.4012,-0.2754 l -7.2013,-2.7012 1.8325,-9.1663 c 0.0415,-0.21289999 0.0126,-0.43359999 -0.0823,-0.62869999 -0.095,-0.1951 -0.2508,-0.3541 -0.444,-0.4529 -0.1932,-0.0987 -0.4132,-0.132 -0.627,-0.0947 -0.2138,0.0372 -0.4096,0.143 -0.558,0.3013 L 4.2746813,15.316175 c -0.1138,0.1199 -0.196,0.266 -0.2395,0.4253 -0.0434,0.1594 -0.0467,0.327 -0.0096,0.488 0.0372,0.1609 0.1136,0.3102 0.2225,0.4344 0.1089,0.1242 0.2468,0.2195 0.4016,0.2773 l 7.2036997,2.7013 -1.8275,9.1562 c -0.0415,0.213 -0.0126,0.4337 0.0823,0.6288 0.095,0.1951 0.2508,0.3541 0.444,0.4528 0.1932,0.0988 0.4132,0.1321 0.627,0.0948 0.2138,-0.0372 0.4096,-0.143 0.558,-0.3014 l 14,-15 c 0.1116,-0.1198 0.1921,-0.2652 0.2344,-0.4235 0.0423,-0.1582 0.045,-0.3244 0.0081,-0.484 z m -13.3025,11.9788 1.3087,-6.5475 c 0.0468,-0.2322 0.0097,-0.4735 -0.1047,-0.6809 -0.1145,-0.2074 -0.2989,-0.3675 -0.5203,-0.4516 l -6.6049997,-2.4813 10.5774997,-11.3325 -1.3075,6.5475 c -0.0468,0.2323 -0.0097,0.4736 0.1047,0.681 0.1145,0.2074 0.2989,0.3674 0.5203,0.4515 l 6.6,2.475 z"
     id="path2"
     inkscape:connector-curvature="0"
     style="fill:#343330" />
</svg>
