<?xml version="1.0" encoding="UTF-8" standalone="no"?>
<svg
   xmlns:dc="http://purl.org/dc/elements/1.1/"
   xmlns:cc="http://creativecommons.org/ns#"
   xmlns:rdf="http://www.w3.org/1999/02/22-rdf-syntax-ns#"
   xmlns:svg="http://www.w3.org/2000/svg"
   xmlns="http://www.w3.org/2000/svg"
   xmlns:sodipodi="http://sodipodi.sourceforge.net/DTD/sodipodi-0.dtd"
   xmlns:inkscape="http://www.inkscape.org/namespaces/inkscape"
   width="18.4"
   height="22"
   viewBox="0 0 18.4 22"
   version="1.1"
   id="svg6"
   sodipodi:docname="Frame 47.svg"
   style="fill:none"
   inkscape:version="0.92.4 (5da689c313, 2019-01-14)">
  <metadata
     id="metadata12">
    <rdf:RDF>
      <cc:Work
         rdf:about="">
        <dc:format>image/svg+xml</dc:format>
        <dc:type
           rdf:resource="http://purl.org/dc/dcmitype/StillImage" />
        <dc:title></dc:title>
      </cc:Work>
    </rdf:RDF>
  </metadata>
  <defs
     id="defs10" />
  <sodipodi:namedview
     pagecolor="#ffffff"
     bordercolor="#666666"
     borderopacity="1"
     objecttolerance="10"
     gridtolerance="10"
     guidetolerance="10"
     inkscape:pageopacity="0"
     inkscape:pageshadow="2"
     inkscape:window-width="758"
     inkscape:window-height="480"
     id="namedview8"
     showgrid="false"
     fit-margin-top="0"
     fit-margin-left="0"
     fit-margin-right="0"
     fit-margin-bottom="0"
     inkscape:zoom="2.95"
     inkscape:cx="9"
     inkscape:cy="11"
     inkscape:window-x="0"
     inkscape:window-y="0"
     inkscape:window-maximized="0"
     inkscape:current-layer="svg6" />
  <path
     d="M 13.7034,0 H 13.5429 C 12.3419,0.1561 11.0882,0.8579 10.404,1.6463 9.6669,2.4926 9.0583,3.5769 9.1652,5.1218 10.7699,5.2457 11.7619,4.4289 12.4863,3.5866 13.2246,2.7384 13.8323,1.5674 13.7034,0 Z"
     id="path2"
     inkscape:connector-curvature="0"
     style="fill:#1f222e" />
  <path
     d="M 18.4,16.1325 V 16.0889 C 16.8303,15.3549 15.5735,14.1098 15.3991,11.9811 15.203,9.638 16.3515,8.2659 17.8044,7.3552 17.0512,6.1956 15.8322,5.4441 14.1146,5.1886 12.7951,4.9928 11.7693,5.3623 10.7491,5.7298 10.6645,5.7603 10.58,5.7907 10.4953,5.8209 10.4035,5.8538 10.312,5.8902 10.2206,5.9264 9.9364,6.0392 9.654,6.1513 9.3705,6.1595 8.9373,6.1724 8.4852,5.9829 8.0851,5.8153 7.9746,5.769 7.8681,5.7244 7.767,5.6861 7.2747,5.5028 6.7127,5.3172 6.1626,5.2333 4.8789,5.0399 3.7265,5.4722 2.888,5.9798 1.2992,6.9343 0.1041,8.9038 0,11.326 v 0.9946 c 0.2457,3.3847 1.5669,6.0295 3.2762,8.077 C 3.856,21.0904 4.6518,21.8594 5.6378,22 h 0.4579 c 0.5739,-0.0797 1.05,-0.2606 1.5218,-0.4398 0.6322,-0.2401 1.2565,-0.4773 2.0975,-0.4639 0.6908,0.0116 1.2606,0.2297 1.8257,0.446 0.5708,0.2185 1.1368,0.4352 1.8176,0.4352 1.4911,0 2.3581,-1.1818 3.0558,-2.1327 0.036,-0.049 0.0716,-0.0975 0.1067,-0.1451 0.7851,-1.0696 1.4284,-2.2223 1.8792,-3.5672 z"
     id="path4"
     inkscape:connector-curvature="0"
     style="fill:#1f222e" />
</svg>
