<svg width="157" height="161" viewBox="0 0 157 161" fill="none" xmlns="http://www.w3.org/2000/svg">
<path d="M75.3225 17H81.6798V29.542H75.3225V17Z" fill="#B0D944"/>
<path d="M72.1438 33.5103V36.0503H65.7865V39.2254H91.2157V36.0503H84.8584V31.1284H78.5011V33.5103H72.1438Z" fill="#B0D944"/>
<path d="M97.573 40.8118H78.5011V43.1937H59.4292V48.9088H97.573V40.8118Z" fill="#B0D944"/>
<path d="M103.93 50.4974H78.5011V52.8792H53.0719V58.5943H103.93V50.4974Z" fill="#B0D944"/>
<path d="M103.93 60.1808H78.5011V62.5626H53.0719V68.2777H103.93V60.1808Z" fill="#B0D944"/>
<path d="M110.288 69.8641H78.5011V72.246H46.7146V77.9611H110.288V69.8641Z" fill="#B0D944"/>
<path d="M110.288 79.5475H78.5011V81.9293H46.7146V87.6444H110.288V79.5475Z" fill="#B0D944"/>
<path d="M78.4989 89.2308V91.6127H40.3573V97.3278H116.645V89.2308H78.4989Z" fill="#B0D944"/>
<path d="M123 98.9164H78.4989V101.298H34V107.013H123V98.9164Z" fill="#B0D944"/>
<path d="M123 108.6H78.4989V110.982H34V116.697H123V108.6Z" fill="#B0D944"/>
<path d="M123 118.283H78.4989V120.665H34V126.38H123V118.283Z" fill="#B0D944"/>
<path d="M110.288 127.967H78.5011V130.348H46.7146V136.063H110.288V127.967Z" fill="#B0D944"/>
<path d="M97.573 137.65H78.5011V140.032H59.4292V144H97.573V137.65Z" fill="#B0D944"/>
</svg>
