<?xml version="1.0" encoding="UTF-8" standalone="no"?>
<svg
   xmlns:dc="http://purl.org/dc/elements/1.1/"
   xmlns:cc="http://creativecommons.org/ns#"
   xmlns:rdf="http://www.w3.org/1999/02/22-rdf-syntax-ns#"
   xmlns:svg="http://www.w3.org/2000/svg"
   xmlns="http://www.w3.org/2000/svg"
   xmlns:sodipodi="http://sodipodi.sourceforge.net/DTD/sodipodi-0.dtd"
   xmlns:inkscape="http://www.inkscape.org/namespaces/inkscape"
   width="31.861099"
   height="31.861099"
   viewBox="0 0 31.861099 31.861099"
   version="1.1"
   id="svg4"
   sodipodi:docname="Frame 49.svg"
   style="fill:none"
   inkscape:version="0.92.4 (5da689c313, 2019-01-14)">
  <metadata
     id="metadata10">
    <rdf:RDF>
      <cc:Work
         rdf:about="">
        <dc:format>image/svg+xml</dc:format>
        <dc:type
           rdf:resource="http://purl.org/dc/dcmitype/StillImage" />
        <dc:title></dc:title>
      </cc:Work>
    </rdf:RDF>
  </metadata>
  <defs
     id="defs8" />
  <sodipodi:namedview
     pagecolor="#ffffff"
     bordercolor="#666666"
     borderopacity="1"
     objecttolerance="10"
     gridtolerance="10"
     guidetolerance="10"
     inkscape:pageopacity="0"
     inkscape:pageshadow="2"
     inkscape:window-width="1920"
     inkscape:window-height="1019"
     id="namedview6"
     showgrid="false"
     fit-margin-top="0"
     fit-margin-left="0"
     fit-margin-right="0"
     fit-margin-bottom="0"
     inkscape:zoom="2.95"
     inkscape:cx="-42.305085"
     inkscape:cy="10.8457"
     inkscape:window-x="0"
     inkscape:window-y="0"
     inkscape:window-maximized="1"
     inkscape:current-layer="svg4" />
  <path
     d="m 31.8611,17.025004 c 0,-0.3413 -0.1898,-0.5871 -0.5696,-1.0786 -2.1078,-2.7285 -8.1884,-9.6896998 -15.3609,-9.6896998 -7.1726,0 -13.2532,6.9611998 -15.361,9.6896998 -0.3797,0.4915 -0.5696,0.7373 -0.5696,1.0786 0,0.3413 0.1899,0.587 0.5696,1.0786 2.1078,2.7284 8.1884,9.6897 15.361,9.6897 7.1725,0 13.2531,-6.9613 15.3609,-9.6897 0.3798,-0.4916 0.5696,-0.7373 0.5696,-1.0786 z m -15.9305,5.3841 c 2.9736,0 5.3841,-2.4105 5.3841,-5.3841 0,-2.9736 -2.4105,-5.3842 -5.3841,-5.3842 -2.9736,0 -5.3842,2.4106 -5.3842,5.3842 0,2.9736 2.4106,5.3841 5.3842,5.3841 z"
     id="path2"
     inkscape:connector-curvature="0"
     style="clip-rule:evenodd;fill:#1f222e;fill-rule:evenodd" />
</svg>
